<svg xmlns="http://www.w3.org/2000/svg" width="1200" height="630" viewBox="0 0 1200 630" font-family="Inter, Helvetica, Arial, sans-serif">
  <!--
    Source of truth for the share card. Edit here, then run `npm run og` to
    re-export public/og.png, which is what the meta tags actually point at —
    no social platform renders SVG.
  -->
  <defs>
    <radialGradient id="glow" cx="50%" cy="50%" r="50%">
      <stop offset="0%" stop-color="#e8a33d" stop-opacity="0.30"/>
      <stop offset="70%" stop-color="#e8a33d" stop-opacity="0.05"/>
      <stop offset="100%" stop-color="#e8a33d" stop-opacity="0"/>
    </radialGradient>
  </defs>

  <rect width="1200" height="630" fill="#08090c"/>
  <circle cx="1000" cy="292" r="290" fill="url(#glow)"/>
  <g transform="translate(905 316) scale(0.7)">
    <path d="M38.50 1Q21.90 1 12.20-8.40Q2.50-17.80 2.50-33.50Q2.50-49.20 12.20-58.60Q21.90-68 38.50-68Q55.40-68 65.15-58.65Q74.90-49.30 74.90-33.50Q74.90-17.70 65.15-8.35Q55.40 1 38.50 1M22.90-17.90Q27.40-13.40 38.50-13.40Q49.60-13.40 54.25-17.90Q58.90-22.40 58.90-33.50Q58.90-44.60 54.25-49.10Q49.60-53.60 38.50-53.60Q27.40-53.60 22.90-49.10Q18.40-44.60 18.40-33.50Q18.40-22.40 22.90-17.90M93.40-29L93.40 0L78.40 0L78.40-50.10L92.30-50.10L92.30-36.80L93.20-36.80Q94.30-43.30 98.55-47.20Q102.80-51.10 110-51.10Q118-51.10 121.90-46.30Q125.80-41.50 125.80-33.60L125.80-25.30L110.80-25.30L110.80-30.50Q110.80-34.70 108.90-36.55Q107-38.40 102.50-38.40Q97.60-38.40 95.50-36.10Q93.40-33.80 93.40-29M142.10-13.90L142.10 0L128.20 0L128.20-67L143.20-67L143.20-36.80L144-36.80Q145.30-43.40 150.20-47.25Q155.10-51.10 163.70-51.10Q174.80-51.10 180.95-44.10Q187.10-37.10 187.10-25Q187.10-13 180.80-6Q174.50 1 163 1Q145.70 1 143-13.90L142.10-13.90M143.20-25.50L143.20-24.70Q143.20-18.30 146.85-15.50Q150.50-12.70 157.80-12.70Q165.20-12.70 168.55-15.50Q171.90-18.30 171.90-25Q171.90-31.80 168.60-34.60Q165.30-37.40 157.90-37.40Q150.40-37.40 146.80-34.65Q143.20-31.90 143.20-25.50M216.90 1Q203.90 1 196.35-5.55Q188.80-12.10 188.80-25Q188.80-36.90 196.45-44Q204.10-51.10 216.60-51.10Q229.10-51.10 236.50-44.75Q243.90-38.40 243.90-26.80Q243.90-25.40 243.50-22L202.70-22Q203-16.10 206.10-13.55Q209.20-11 216.40-11Q222.90-11 225.65-12.65Q228.40-14.30 228.40-17.60L228.40-18.60L243.40-18.60L243.40-17.50Q243.40-9.30 236.10-4.15Q228.80 1 216.90 1M226.05-37.15Q222.90-39.40 216.30-39.40Q209.70-39.40 206.55-37.10Q203.40-34.80 202.90-29.90L229.50-29.90Q229.20-34.90 226.05-37.15M262.30-67L262.30 0L247.30 0L247.30-67M282.20-67L282.20-55.20L267.20-55.20L267.20-67L282.20-67M282.20-50.10L282.20 0L267.20 0L267.20-50.10M312.40 1Q299.80 1 293-3.75Q286.20-8.50 286.20-17.20L286.20-17.50L301.20-17.50L301.20-16.60Q301.20-13.30 303.60-12.10Q306-10.90 312.50-10.90Q318.30-10.90 320.35-11.90Q322.40-12.90 322.40-15.20Q322.40-17.30 320.95-18.15Q319.50-19 315-19.60L300.90-21.30Q285.30-23 285.30-35.30Q285.30-42.30 291.50-46.70Q297.70-51.10 310-51.10Q322.40-51.10 329.05-46.45Q335.70-41.80 335.70-32.70L335.70-32.40L320.70-32.40L320.70-33Q320.70-36.30 318.40-37.75Q316.10-39.20 309.50-39.20Q304-39.20 302.05-38.20Q300.10-37.20 300.10-34.70Q300.10-32.70 301.70-31.75Q303.30-30.80 308.10-30.20L318.80-28.90Q328.70-27.80 332.95-24.35Q337.20-20.90 337.20-14.60Q337.20-7.50 330.55-3.25Q323.90 1 312.40 1" fill="#e8eaf0"/>
    <rect x="339.3" y="-17.5" width="19.3" height="17.5" fill="#e8a33d"/>
  </g>

  <text x="80" y="296" fill="#e8eaf0" font-size="68" font-weight="600" letter-spacing="-2.3">Automate the busywork.</text>
  <text x="80" y="374" fill="#e8eaf0" font-size="68" font-weight="600" letter-spacing="-2.3">Answer every enquiry.</text>

  <rect x="80" y="440" width="132" height="1" fill="#22262f"/>

  <text x="80" y="496" fill="#878e9e" font-size="25" letter-spacing="-0.2">Automation, AI assistants, apps and websites,</text>
  <text x="80" y="532" fill="#878e9e" font-size="25" letter-spacing="-0.2">and the marketing that brings people in.</text>

  <text x="80" y="580" fill="#878e9e" font-size="17" letter-spacing="3" font-family="monospace">KERALA, INDIA — WORKING WORLDWIDE</text>
</svg>
